#!OML:ASF F:\VICON\USERDATA\INSTALL\rory3\rory3.ASF
:FULLY-SPECIFIED
:DEGREES
103
root 0.29493 17.2705 22.7272 1.9687 -3.26935 1.89958
lowerback 18.8747 -0.347735 -3.49208
upperback 1.75601 -1.36551 -1.89413
thorax -8.65079 -0.564236 0.28793
lowerneck -5.06871 1.5754 -1.07645
upperneck -10.1294 2.27011 1.82844
head -2.36672 1.12839 0.74771
rclavicle 1.59028e-014 -1.59028e-015
rhumerus -51.0696 5.93272 -89.3336
rradius 92.8808
rwrist -0.493277
rhand -39.1916 37.0984
rfingers 7.12502
rthumb -12.1884 7.47353
lclavicle 1.59028e-014 -1.59028e-015
lhumerus -19.0787 -21.7977 88.0765
lradius 114.84
lwrist 28.3525
lhand -31.0402 10.5708
lfingers 7.12502
lthumb -4.32196 40.5067
rfemur -33.958 -4.49167 15.7193
rtibia 109.72
rfoot 14.9766 -6.90718
rtoes 11.8977
lfemur -4.45419 -1.35933 -27.8721
ltibia 38.8692
lfoot -17.9104 -3.2398
ltoes -17.8625
104
root 0.279842 17.3307 23.2687 1.97342 -3.25162 1.83316
lowerback 18.8925 -0.653127 -3.57146
upperback 1.54716 -1.78243 -1.78302
thorax -8.87171 -0.752587 0.561925
lowerneck -4.71466 1.86067 -1.07989
upperneck -9.90358 2.64243 1.77298
head -2.35911 1.31383 0.725612
rclavicle -8.94531e-016 1.59028e-015
rhumerus -52.5853 5.57549 -89.153
rradius 92.6445
rwrist -0.666592
rhand -39.329 37.0053
rfingers 7.12502
rthumb -12.3208 7.38826
lclavicle -8.94531e-016 1.59028e-015
lhumerus -18.2843 -21.0358 87.5292
lradius 114.862
lwrist 26.7621
lhand -29.7872 11.4002
lfingers 7.12502
lthumb -3.11196 41.3572
rfemur -36.0543 -4.09897 16.4502
rtibia 108.095
rfoot 14.822 -6.8335
rtoes 11.4837
lfemur -1.74757 -1.24255 -27.7979
ltibia 37.3326
lfoot -16.0867 -3.54937
ltoes -21.127
105
root 0.266255 17.3787 23.8189 2.02445 -2.71908 2.14376
lowerback 18.5066 -1.11921 -3.92626
upperback 1.48881 -2.44319 -1.70271
thorax -8.68188 -1.05643 1.01039
lowerneck -4.55696 2.07343 -1.10892
upperneck -9.67564 2.91461 1.65786
head -2.31399 1.45237 0.690888
rclavicle -1.10325e-014 -2.38542e-015
rhumerus -53.8025 5.3375 -88.794
rradius 92.4973
rwrist -0.919914
rhand -39.078 36.5667
rfingers 7.12502
rthumb -12.0788 6.93527
lclavicle -1.10325e-014 -2.38542e-015
lhumerus -17.5975 -19.8097 87.0481
lradius 114.612
lwrist 24.282
lhand -28.9317 9.57674
lfingers 7.12502
lthumb -2.28578 39.5442
rfemur -37.1721 -4.40142 16.4912
rtibia 106.251
rfoot 13.2326 -6.79132
rtoes 10.4226
lfemur 0.811079 -1.39135 -28.0512
ltibia 35.8288
lfoot -13.8643 -3.97392
ltoes -23.0059
106
root 0.249198 17.4655 24.3769 2.06517 -2.38169 2.26937
lowerback 18.2369 -1.54259 -4.31126
upperback 1.43861 -3.04617 -1.49187
thorax -8.52952 -1.32971 1.59749
lowerneck -4.79295 2.35539 -1.12253
upperneck -9.17796 3.27194 1.44936
head -2.11063 1.63716 0.628869
rclavicle -6.75868e-015 -3.97569e-016
rhumerus -54.7504 5.30033 -88.3883
rradius 92.3552
rwrist -1.15469
rhand -38.8609 36.2298
rfingers 7.12502
rthumb -11.8696 6.5862
lclavicle -6.75868e-015 -3.97569e-016
lhumerus -17.1177 -19.036 86.7808
lradius 114.513
lwrist 24.0887
lhand -29.7604 3.12428
lfingers 7.12502
lthumb -3.08603 33.0817
rfemur -38.6948 -4.40237 16.8515
rtibia 103.895
rfoot 12.07 -6.85748
rtoes 9.28884
lfemur 3.30191 -1.34434 -28.0232
ltibia 34.2327
lfoot -11.3118 -4.578
ltoes -24.6585
107
root 0.253488 17.5216 24.9097 2.65794 -3.64344 2.18812
lowerback 17.9001 -1.49776 -4.41918
upperback 0.98792 -2.99926 -1.36366
thorax -8.82703 -1.28789 1.78151
lowerneck -5.10901 2.66222 -0.976407
upperneck -8.44189 3.64746 1.07462
head -1.81066 1.82895 0.493012
rclavicle 1.04362e-014 -2.66371e-014
rhumerus -55.8901 5.17132 -88.0575
rradius 92.2346
rwrist -1.11569
rhand -38.8683 35.9522
rfingers 7.12502
rthumb -11.8767 6.30905
lclavicle 1.04362e-014 -2.66371e-014
lhumerus -16.9723 -18.3953 86.4884
lradius 114.911
lwrist 24.1674
lhand -28.1562 4.7691
lfingers 7.12502
lthumb -1.53681 34.7433
rfemur -41.2854 -2.79684 17.2734
rtibia 101.495
rfoot 10.898 -6.78197
rtoes 9.28977
lfemur 4.87514 -0.374075 -28.0729
ltibia 32.6013
lfoot -8.26278 -5.0699
ltoes -23.4186
108
root 0.243705 17.5938 25.4677 3.00579 -4.15375 2.08314
lowerback 17.1714 -1.66931 -4.53218
upperback 0.906661 -3.19364 -1.18921
thorax -8.48197 -1.38313 2.05213
lowerneck -5.26468 2.90148 -0.799198
upperneck -8.02561 3.93506 0.677218
head -1.64034 1.97406 0.344993
rclavicle -1.66979e-014 -2.78299e-015
rhumerus -56.6601 5.03493 -87.6698
rradius 91.9254
rwrist -1.33195
rhand -38.7209 36.0162
rfingers 7.12502
rthumb -11.7345 6.36485
lclavicle -1.66979e-014 -2.78299e-015
lhumerus -16.7555 -18.1717 86.2578
lradius 115.706
lwrist 25.2574
lhand -25.5822 9.11807
lfingers 7.12502
lthumb 0.9493 39.0957
rfemur -42.8445 -1.79423 17.7281
rtibia 98.5522
rfoot 9.13012 -6.78369
rtoes 8.29705
lfemur 6.89299 0.0918222 -27.9147
ltibia 30.6242
lfoot -4.53247 -5.6496
ltoes -22.1338
